<svg width="138" height="47" viewBox="0 0 138 47" fill="none" xmlns="http://www.w3.org/2000/svg">
    <g clip-path="url(#clip0_1739_25034)">
        <path d="M46.4226 0.30249C47.2348 0.30249 47.9155 0.335065 48.4648 0.400213V0.884173C46.4554 0.981896 44.723 1.4612 43.2629 2.3314C41.6104 3.32724 40.4366 4.25328 39.7371 5.10487C39.0423 5.95645 38.4883 6.64516 38.0845 7.17566C37.6808 7.70615 37.2817 8.33902 36.892 9.07892C36.277 10.2051 35.7089 11.3126 35.1878 12.4062L22.155 40.6527C20.662 43.8357 19.8686 45.939 19.7747 46.9674H19.3381L4.60566 15.4821C4.11739 14.584 3.50237 13.8999 2.75589 13.4346C2.00941 12.9692 1.24885 12.7365 0.469505 12.7365H0.079834V12.2526H15.5446V12.7365H15.155C14.4413 12.7365 13.9155 12.9553 13.5728 13.388C13.2348 13.8208 13.0611 14.2303 13.0611 14.6165C13.0611 15.0028 13.1268 15.389 13.2535 15.7753L21.5212 35.6828L31.5869 12.4015C33.108 8.83229 34.892 6.1519 36.9343 4.35101C39.9578 1.652 43.1174 0.30249 46.4226 0.30249Z"
              fill="#FFFFFF"/>
        <path d="M40.3709 28.7413C40.8554 28.7413 41.2642 28.5804 41.6124 28.2657C41.9531 27.9511 42.1347 27.5664 42.1575 27.1189V12.8531C42.1423 12.4056 41.9606 12.028 41.6124 11.7203C41.2718 11.4126 40.8554 11.2587 40.3709 11.2587H40.0076V11H50V11.2587H49.6366C49.1522 11.2587 48.7434 11.4126 48.3952 11.7203C48.0545 12.028 47.8728 12.4056 47.8501 12.8531V27.1189C47.8501 27.5664 48.0242 27.9441 48.38 28.2657C48.7282 28.5804 49.1522 28.7413 49.6291 28.7413H49.9924V29H40V28.7413H40.3709Z"
              fill="#FFFFFF"/>
        <path d="M64.4849 11C66.8648 11 68.9208 11.3565 70.6454 12.0628C72.37 12.7691 73.6955 13.8049 74.6143 15.1637C75.5406 16.5224 76 18.1368 76 20C76 22.8184 74.9758 25.0247 72.9273 26.6121C70.8788 28.1996 68.0622 29 64.4849 29C60.9077 29 58.091 28.2063 56.0576 26.6121C54.0167 25.0247 53 22.8184 53 20C53 17.1816 54.0167 14.9753 56.0576 13.3879C58.091 11.8004 60.9001 11 64.4849 11ZM60.5386 25.7108C61.4876 27.0762 62.8055 27.7623 64.5 27.7623C66.187 27.7623 67.5049 27.0762 68.4538 25.7108C69.4027 24.3453 69.8772 22.4417 69.8772 20C69.8772 17.5583 69.4027 15.6547 68.4538 14.2892C67.5049 12.9238 66.187 12.2377 64.5 12.2377C62.813 12.2377 61.4876 12.9238 60.5386 14.2892C59.5897 15.6547 59.1153 17.5583 59.1153 20C59.1153 22.4417 59.5897 24.3453 60.5386 25.7108Z"
              fill="#FFFFFF"/>
        <path d="M79.3563 28.7343C79.8314 28.7343 80.2323 28.5734 80.5738 28.2587C80.9079 27.9441 81.086 27.5594 81.1083 27.1119V12.8741C81.0935 12.2378 80.7965 11.7692 80.2323 11.4615C79.9576 11.3217 79.6681 11.2587 79.3563 11.2587H79V11H88.7991V11.2587H88.4428C87.9677 11.2587 87.5594 11.4196 87.2179 11.7343C86.8764 12.049 86.6983 12.4336 86.6983 12.8811V27.6853H90.0537C91.3825 27.6853 92.5555 27.2727 93.5725 26.4545C94.5895 25.6294 95.3096 24.4895 95.7253 23.035H96L94.9607 29H79V28.7413H79.3563V28.7343Z"
              fill="#FFFFFF"/>
        <path d="M100.328 28.7409C100.776 28.7409 101.153 28.5841 101.474 28.2773C101.789 27.9705 101.956 27.5955 101.977 27.1591V13.2773C101.963 12.7455 101.726 12.3159 101.286 12.0023C101.013 11.8045 100.699 11.7023 100.335 11.7023H100V11.45H111.375C112.108 11.45 112.765 11.3886 113.338 11.2727C113.911 11.1568 114.274 11.0614 114.428 11V16.1614H114.169V15.9636C114.169 14.6273 113.673 13.6932 112.681 13.1545C112.199 12.8886 111.626 12.7455 110.962 12.7318H107.238V19.7205H110.04C110.865 19.7068 111.528 19.4409 112.045 18.9295C112.562 18.4182 112.814 17.7636 112.814 16.9659V16.8636H113.072V23.8318H112.814V23.7091C112.814 22.925 112.555 22.2773 112.045 21.7659C111.535 21.2545 110.872 20.9955 110.068 20.975H107.245V27.7182H110.403C111.654 27.7182 112.758 27.3159 113.715 26.5182C114.672 25.7136 115.35 24.6023 115.741 23.1841H116L115.022 29H100V28.7477H100.328V28.7409Z"
              fill="#FFFFFF"/>
        <path d="M131.375 12.7026V27.1952C131.39 27.6311 131.573 27.9989 131.923 28.2985C132.266 28.5982 132.685 28.748 133.164 28.748H133.53V29H123.485V28.748H123.851C124.338 28.748 124.749 28.5982 125.092 28.2985C125.435 27.9989 125.618 27.6379 125.64 27.2225V12.7026H122.869C121.749 12.7162 120.873 13.0159 120.234 13.588C119.602 14.1669 119.282 14.9501 119.282 15.9512V16.1283L119 16.1555V11C119.259 11.1022 119.731 11.1975 120.416 11.2997C121.094 11.4018 121.726 11.4495 122.305 11.4495H134.703C135.281 11.4495 135.906 11.4018 136.576 11.2997C137.246 11.1975 137.726 11.1022 138 11V16.1555L137.718 16.1283V15.9512C137.718 14.6027 137.155 13.6493 136.035 13.0976C135.495 12.8456 134.847 12.7162 134.101 12.6958H131.375V12.7026Z"
              fill="#FFFFFF"/>
        <path d="M45.617 40.5259C45.4495 40.4971 45.2748 40.4826 45.0855 40.4826C44.5976 40.4826 44.1826 40.6198 43.8476 40.8868C43.5127 41.1538 43.2724 41.5508 43.1268 42.0632V46.8771H42.3477V39.8692H43.1122L43.1268 40.9806C43.5418 40.1506 44.2044 39.7393 45.1219 39.7393C45.3403 39.7393 45.5078 39.7681 45.6389 39.8259L45.617 40.5259Z"
              fill="#FFFFFF"/>
        <path d="M52.4398 47C51.8428 47 51.2967 46.8556 50.8088 46.5597C50.3209 46.2638 49.9423 45.8596 49.6729 45.3328C49.4035 44.8059 49.2651 44.2213 49.2651 43.5645V43.2831C49.2651 42.6119 49.3962 42.0056 49.6583 41.4643C49.9205 40.923 50.2918 40.4972 50.7578 40.1941C51.2311 39.8837 51.7408 39.7322 52.2869 39.7322C53.1461 39.7322 53.8233 40.0209 54.3257 40.6055C54.8282 41.1828 55.083 41.9767 55.083 42.9872V43.4202H50.037V43.5718C50.037 44.3657 50.27 45.0297 50.7287 45.5565C51.1874 46.0834 51.7627 46.3504 52.4617 46.3504C52.8767 46.3504 53.2481 46.2782 53.5685 46.1267C53.8888 45.9751 54.1801 45.7369 54.4422 45.405L54.9301 45.773C54.3621 46.5886 53.5321 47 52.4398 47ZM52.2942 40.3962C51.7044 40.3962 51.2093 40.6127 50.8088 41.0385C50.4083 41.4643 50.1608 42.0417 50.0734 42.7634H54.3112V42.6768C54.2893 42.0056 54.0927 41.4571 53.7287 41.0313C53.3646 40.6055 52.884 40.3962 52.2942 40.3962Z"
              fill="#FFFFFF"/>
        <path d="M64.0463 46.87C63.9662 46.6462 63.9152 46.3214 63.8934 45.8884C63.6167 46.2421 63.2672 46.5163 62.8449 46.7112C62.4225 46.906 61.9711 46.9999 61.4978 46.9999C60.8206 46.9999 60.2672 46.8122 59.8449 46.4369C59.4226 46.0616 59.2114 45.5853 59.2114 45.0151C59.2114 44.3367 59.4954 43.7954 60.0706 43.3985C60.6459 43.0015 61.4395 42.7994 62.4662 42.7994H63.8861V42.0055C63.8861 41.5075 63.7332 41.1106 63.4201 40.8219C63.107 40.5332 62.6555 40.3888 62.0585 40.3888C61.5124 40.3888 61.0609 40.526 60.7041 40.8002C60.3473 41.0745 60.1726 41.4065 60.1726 41.7962L59.3862 41.789C59.3862 41.2333 59.6483 40.7497 60.1726 40.3383C60.6968 39.9269 61.3376 39.7249 62.1022 39.7249C62.8885 39.7249 63.5147 39.9197 63.9662 40.3095C64.4176 40.6992 64.6579 41.2477 64.6652 41.9478V45.2605C64.6652 45.9389 64.738 46.4441 64.8837 46.7834V46.8627H64.0463V46.87ZM61.5852 46.3142C62.1094 46.3142 62.5754 46.1915 62.9832 45.9389C63.3982 45.6863 63.6968 45.3543 63.8788 44.9357V43.3912H62.4808C61.7017 43.3984 61.09 43.5428 60.6531 43.817C60.2163 44.0913 59.9905 44.4666 59.9905 44.9502C59.9905 45.3399 60.1362 45.6719 60.4347 45.9317C60.7332 46.1915 61.1192 46.3142 61.5852 46.3142Z"
              fill="#FFFFFF"/>
        <path d="M70.5996 46.87H69.8132V36.9246H70.5996V46.87Z" fill="#FFFFFF"/>
        <path d="M84.6527 47C84.0557 47 83.5095 46.8556 83.0217 46.5597C82.5338 46.2638 82.1552 45.8596 81.8858 45.3328C81.6164 44.8059 81.478 44.2213 81.478 43.5645V43.2831C81.478 42.6119 81.6091 42.0056 81.8712 41.4643C82.1334 40.923 82.5047 40.4972 82.9707 40.1941C83.444 39.8837 83.9537 39.7322 84.4998 39.7322C85.359 39.7322 86.0362 40.0209 86.5386 40.6055C87.0411 41.1828 87.2959 41.9767 87.2959 42.9872V43.4202H82.2499V43.5718C82.2499 44.3657 82.4829 45.0297 82.9416 45.5565C83.4003 46.0834 83.9756 46.3504 84.6746 46.3504C85.0896 46.3504 85.461 46.2782 85.7814 46.1267C86.1017 45.9751 86.393 45.7369 86.6551 45.405L87.143 45.773C86.5823 46.5886 85.745 47 84.6527 47ZM84.5071 40.3962C83.9173 40.3962 83.4222 40.6127 83.0217 41.0385C82.6212 41.4643 82.3736 42.0417 82.2863 42.7634H86.5241V42.6768C86.5022 42.0056 86.3056 41.4571 85.9416 41.0313C85.5775 40.6055 85.1042 40.3962 84.5071 40.3962Z"
              fill="#FFFFFF"/>
        <path d="M96.0338 45.0873C96.0338 44.7048 95.8809 44.3944 95.5678 44.1635C95.2547 43.9325 94.7887 43.7449 94.1625 43.615C93.5363 43.4851 93.0484 43.3335 92.6989 43.1603C92.3567 42.9871 92.0945 42.785 91.9271 42.5324C91.7596 42.287 91.6722 41.9911 91.6722 41.6374C91.6722 41.0817 91.9052 40.627 92.3712 40.2661C92.8372 39.9053 93.4343 39.7249 94.1625 39.7249C94.9489 39.7249 95.5824 39.9197 96.0629 40.3022C96.5435 40.6848 96.7765 41.19 96.7765 41.8179H95.9901C95.9901 41.4065 95.8154 41.0673 95.4731 40.793C95.1309 40.5188 94.6867 40.3816 94.1625 40.3816C93.6455 40.3816 93.2377 40.4971 92.9246 40.7208C92.6115 40.9446 92.4586 41.2405 92.4586 41.6086C92.4586 41.955 92.5897 42.2292 92.8445 42.4241C93.1067 42.619 93.58 42.7922 94.2644 42.951C94.9489 43.1098 95.4659 43.283 95.8081 43.4634C96.1503 43.6438 96.4052 43.8604 96.5726 44.1202C96.7401 44.3728 96.8202 44.6831 96.8202 45.044C96.8202 45.6358 96.5799 46.1049 96.0993 46.4658C95.6188 46.8194 94.9926 46.9999 94.2134 46.9999C93.3906 46.9999 92.7207 46.805 92.211 46.4081C91.7013 46.0111 91.4392 45.5131 91.4392 44.9069H92.2256C92.2547 45.3615 92.4513 45.7152 92.8008 45.9678C93.1504 46.2204 93.6236 46.3431 94.2062 46.3431C94.7523 46.3431 95.1892 46.2276 95.5241 45.9895C95.8663 45.7513 96.0338 45.4482 96.0338 45.0873Z"
              fill="#FFFFFF"/>
        <path d="M102.762 38.0652V39.8623H104.225V40.4974H102.762V45.1742C102.762 45.5639 102.835 45.8526 102.973 46.0403C103.111 46.2279 103.352 46.329 103.679 46.329C103.81 46.329 104.022 46.3073 104.313 46.264L104.349 46.8919C104.145 46.9641 103.869 47.0002 103.512 47.0002C102.973 47.0002 102.587 46.8486 102.34 46.5383C102.092 46.2279 101.975 45.7732 101.975 45.1742V40.4974H100.672V39.8623H101.975V38.0652H102.762Z"
              fill="#FFFFFF"/>
        <path d="M113.276 46.87C113.196 46.6462 113.145 46.3214 113.123 45.8884C112.847 46.2421 112.497 46.5163 112.075 46.7112C111.653 46.906 111.201 46.9999 110.728 46.9999C110.051 46.9999 109.497 46.8122 109.075 46.4369C108.653 46.0616 108.441 45.5853 108.441 45.0151C108.441 44.3367 108.725 43.7954 109.301 43.3985C109.876 43.0015 110.67 42.7994 111.696 42.7994H113.116V42.0055C113.116 41.5075 112.963 41.1106 112.65 40.8219C112.337 40.5332 111.886 40.3888 111.288 40.3888C110.742 40.3888 110.291 40.526 109.934 40.8002C109.577 41.0745 109.403 41.4065 109.403 41.7962L108.616 41.789C108.616 41.2333 108.878 40.7497 109.403 40.3383C109.927 39.9269 110.568 39.7249 111.332 39.7249C112.119 39.7249 112.745 39.9197 113.196 40.3095C113.648 40.6992 113.888 41.2477 113.895 41.9478V45.2605C113.895 45.9389 113.968 46.4441 114.114 46.7834V46.8627H113.276V46.87ZM110.822 46.3142C111.347 46.3142 111.813 46.1915 112.22 45.9389C112.635 45.6863 112.934 45.3543 113.116 44.9357V43.3912H111.718C110.939 43.3984 110.327 43.5428 109.89 43.817C109.454 44.0913 109.228 44.4666 109.228 44.9502C109.228 45.3399 109.373 45.6719 109.672 45.9317C109.971 46.1915 110.349 46.3142 110.822 46.3142Z"
              fill="#FFFFFF"/>
        <path d="M120.164 38.0652V39.8623H121.628V40.4974H120.164V45.1742C120.164 45.5639 120.237 45.8526 120.376 46.0403C120.514 46.2279 120.754 46.329 121.082 46.329C121.213 46.329 121.424 46.3073 121.715 46.264L121.752 46.8919C121.548 46.9641 121.271 47.0002 120.914 47.0002C120.376 47.0002 119.99 46.8486 119.742 46.5383C119.495 46.2279 119.378 45.7732 119.378 45.1742V40.4974H118.075V39.8623H119.378V38.0652H120.164Z"
              fill="#FFFFFF"/>
        <path d="M128.96 47C128.363 47 127.817 46.8556 127.329 46.5597C126.841 46.2638 126.463 45.8596 126.193 45.3328C125.924 44.8059 125.786 44.2213 125.786 43.5645V43.2831C125.786 42.6119 125.917 42.0056 126.179 41.4643C126.441 40.923 126.812 40.4972 127.278 40.1941C127.752 39.8837 128.261 39.7322 128.807 39.7322C129.667 39.7322 130.344 40.0209 130.846 40.6055C131.349 41.1828 131.604 41.9767 131.604 42.9872V43.4202H126.557V43.5718C126.557 44.3657 126.79 45.0297 127.249 45.5565C127.708 46.0834 128.283 46.3504 128.982 46.3504C129.397 46.3504 129.769 46.2782 130.089 46.1267C130.409 45.9751 130.701 45.7369 130.963 45.405L131.451 45.773C130.89 46.5886 130.053 47 128.96 47ZM128.815 40.3962C128.225 40.3962 127.73 40.6127 127.329 41.0385C126.929 41.4643 126.681 42.0417 126.594 42.7634H130.832V42.6768C130.81 42.0056 130.613 41.4571 130.249 41.0313C129.885 40.6055 129.405 40.3962 128.815 40.3962Z"
              fill="#FFFFFF"/>
    </g>
    <defs>
        <clipPath id="clip0_1739_25034">
            <rect width="138" height="47" fill="white"/>
        </clipPath>
    </defs>
</svg>
