<svg width="65" height="90" viewBox="0 0 65 90" fill="none" xmlns="http://www.w3.org/2000/svg">
    <path d="M32.5 0C14.5794 0 0 14.6219 0 32.5945C0 54.899 29.0843 87.6434 30.3226 89.0265C31.4857 90.3257 33.5164 90.3234 34.6774 89.0265C35.9157 87.6434 65 54.899 65 32.5945C64.9996 14.6219 50.4204 0 32.5 0ZM32.5 48.9936C23.4837 48.9936 16.1486 41.637 16.1486 32.5945C16.1486 23.5519 23.4839 16.1954 32.5 16.1954C41.5161 16.1954 48.8512 23.5521 48.8512 32.5946C48.8512 41.6372 41.5161 48.9936 32.5 48.9936Z"
          fill="#F8271A"/>
</svg>
