<svg width="22" height="18" viewBox="0 0 22 18" fill="none" xmlns="http://www.w3.org/2000/svg">
    <path d="M14.5108 8.24629L9.39165 5.60983C9.09731 5.45824 8.74939 5.46389 8.46088 5.6248C8.17219 5.78588 8 6.07043 8 6.38626V11.6139C8 11.9282 8.17113 12.2123 8.45787 12.3735C8.60761 12.4577 8.77361 12.5 8.93997 12.5C9.09236 12.5 9.2451 12.4646 9.38564 12.3933L14.505 9.8023C14.8089 9.64838 14.9986 9.35102 15 9.02604C15.0012 8.70106 14.8138 8.40237 14.5108 8.24629ZM9.35789 10.9563V7.0492L13.1839 9.01972L9.35789 10.9563Z"
          fill="#3C413F"/>
    <path d="M21.838 4.51232L21.837 4.50204C21.8184 4.32139 21.6329 2.71447 20.8672 1.89715C19.9822 0.935805 18.9788 0.81902 18.4962 0.763024C18.4563 0.758401 18.4197 0.75412 18.387 0.749668L18.3485 0.745558C15.4401 0.529796 11.0478 0.500342 11.0038 0.500171L10.9999 0.5L10.9961 0.500171C10.9521 0.500342 6.55973 0.529796 3.62512 0.745558L3.58635 0.749668C3.55513 0.753949 3.52073 0.757887 3.4833 0.762339C3.00628 0.818506 2.01364 0.935463 1.12607 1.93156C0.396787 2.74016 0.185973 4.31265 0.164321 4.48937L0.161803 4.51232C0.155257 4.58749 0 6.37712 0 8.17377V9.85329C0 11.6499 0.155257 13.4396 0.161803 13.5149L0.162978 13.5262C0.181609 13.704 0.36691 15.2814 1.1291 16.0991C1.96127 17.0282 3.0135 17.1512 3.57947 17.2173C3.66893 17.2277 3.74597 17.2366 3.79851 17.2461L3.84937 17.2532C5.52866 17.4163 10.7938 17.4966 11.017 17.4998L11.0238 17.5L11.0305 17.4998C11.0744 17.4997 15.4666 17.4702 18.375 17.2544L18.4135 17.2503C18.4502 17.2454 18.4915 17.2409 18.5368 17.2361C19.0112 17.1847 19.9984 17.0781 20.8738 16.0955C21.603 15.2867 21.814 13.7142 21.8355 13.5377L21.838 13.5147C21.8446 13.4394 22 11.6499 22 9.85329V8.17377C21.9998 6.37712 21.8446 4.58766 21.838 4.51232ZM20.7106 9.85329C20.7106 11.5162 20.5683 13.2288 20.5549 13.386C20.5001 13.819 20.2777 14.8139 19.9224 15.208C19.3746 15.8229 18.8118 15.8838 18.4009 15.9282C18.3512 15.9335 18.3052 15.9386 18.2636 15.9439C15.4505 16.1515 11.224 16.1833 11.0293 16.1845C10.8109 16.1813 5.62282 16.1003 3.99472 15.946C3.9113 15.9321 3.82117 15.9215 3.72617 15.9106C3.24428 15.8542 2.58465 15.7772 2.07742 15.208L2.06551 15.1949C1.71639 14.8239 1.50037 13.8935 1.44548 13.3911C1.43525 13.2723 1.28922 11.5395 1.28922 9.85329V8.17377C1.28922 6.51274 1.43122 4.80206 1.44498 4.64161C1.51027 4.13148 1.73686 3.19686 2.07742 2.8191C2.64205 2.18551 3.2374 2.1153 3.63117 2.0689C3.66876 2.06445 3.70384 2.06034 3.73624 2.05606C6.59028 1.84749 10.8472 1.81649 10.9999 1.81529C11.1527 1.81632 15.408 1.84749 18.2367 2.05606C18.2715 2.06051 18.3094 2.06496 18.3502 2.06976C18.7552 2.11685 19.3673 2.18808 19.9291 2.79941L19.9343 2.80506C20.2834 3.17614 20.4995 4.12275 20.5543 4.63527C20.5641 4.74743 20.7106 6.48397 20.7106 8.17377V9.85329Z"
          fill="#3C413F"/>
</svg>
