<svg width="0" height="0" class="hidden">
    <symbol fill="none" xmlns="http://www.w3.org/2000/svg" viewBox="0 0 7 5" id="arrow">
        <path d="M1 1.5L3.5 3.5L6 1.5" stroke-linecap="square"/>
    </symbol>
    <symbol fill="none" xmlns="http://www.w3.org/2000/svg" viewBox="0 0 6 10" id="arrow-left">
        <path d="M1 8.5L4.33333 5L1 1.5" stroke-width="2" stroke-linecap="round" stroke-linejoin="round"/>
    </symbol>
    <symbol fill="none" xmlns="http://www.w3.org/2000/svg" viewBox="0 0 39 50" id="award">
        <path d="M29.7939 33.0824V47.5L19.4998 42.3774L9.20569 47.5V33.0824" stroke="#428AB5" stroke-width="2.50185"
              stroke-miterlimit="10"/>
        <path d="M19.5 36.4207C29.165 36.4207 37 28.6035 37 18.9604C37 9.31727 29.165 1.5 19.5 1.5C9.83502 1.5 2 9.31727 2 18.9604C2 28.6035 9.83502 36.4207 19.5 36.4207Z"
              stroke="#428AB5" stroke-width="2.50185" stroke-miterlimit="10"/>
        <path d="M19.4995 24.5836L26.3965 28.7817L24.5179 21.0786L30.823 15.9818L22.5234 15.1473L19.4995 8.03473L16.4756 15.1473L8.17596 15.9818L14.4811 21.0786L12.6024 28.7817L19.4995 24.5836Z"
              stroke="#428AB5" stroke-width="2.50185" stroke-miterlimit="10"/>
    </symbol>
    <symbol xmlns="http://www.w3.org/2000/svg" viewBox="0 0 16 14" id="box-arrow-smooth">
        <path d="M12.0992 4.90039L9.13698 7.30908C8.57731 7.75308 7.7899 7.75308 7.23023 7.30908L4.24304 4.90039"
              stroke-width="1.5" stroke-linecap="round" stroke-linejoin="round"/>
        <path fill-rule="evenodd" clip-rule="evenodd"
              d="M11.4367 13C13.4642 13.0056 14.8308 11.3397 14.8308 9.29224V4.71334C14.8308 2.66588 13.4642 1 11.4367 1H4.89153C2.86396 1 1.49744 2.66588 1.49744 4.71334V9.29224C1.49744 11.3397 2.86396 13.0056 4.89153 13H11.4367Z"
              stroke-width="1.5" stroke-linecap="round" stroke-linejoin="round"/>
    </symbol>
    <symbol xmlns="http://www.w3.org/2000/svg" viewBox="0 0 14 16" id="calendar-smooth">
        <path d="M1.22589 6.26931H13.1085" stroke-width="1.5" stroke-linecap="round" stroke-linejoin="round"/>
        <path d="M10.1255 8.87283H10.1317" stroke-width="1.5" stroke-linecap="round" stroke-linejoin="round"/>
        <path d="M7.16722 8.87283H7.1734" stroke-width="1.5" stroke-linecap="round" stroke-linejoin="round"/>
        <path d="M4.20275 8.87283H4.20892" stroke-width="1.5" stroke-linecap="round" stroke-linejoin="round"/>
        <path d="M10.1255 11.4636H10.1317" stroke-width="1.5" stroke-linecap="round" stroke-linejoin="round"/>
        <path d="M7.16722 11.4636H7.1734" stroke-width="1.5" stroke-linecap="round" stroke-linejoin="round"/>
        <path d="M4.20268 11.4636H4.20886" stroke-width="1.5" stroke-linecap="round" stroke-linejoin="round"/>
        <path d="M9.85995 1.33301V3.52686" stroke-width="1.5" stroke-linecap="round" stroke-linejoin="round"/>
        <path d="M4.47445 1.33301V3.52686" stroke-width="1.5" stroke-linecap="round" stroke-linejoin="round"/>
        <path fill-rule="evenodd" clip-rule="evenodd"
              d="M9.98963 2.38574H4.34477C2.38697 2.38574 1.16412 3.47636 1.16412 5.48109V11.5142C1.16412 13.5504 2.38697 14.6663 4.34477 14.6663H9.98346C11.9474 14.6663 13.1641 13.5694 13.1641 11.5646V5.48109C13.1703 3.47636 11.9536 2.38574 9.98963 2.38574Z"
              stroke-width="1.5" stroke-linecap="round" stroke-linejoin="round"/>
    </symbol>
    <symbol fill="none" xmlns="http://www.w3.org/2000/svg" viewBox="0 0 50 50" id="checkmark">
        <path d="M24.9998 45.8334C36.5058 45.8334 45.8332 36.506 45.8332 25C45.8332 13.4941 36.5058 4.16669 24.9998 4.16669C13.4939 4.16669 4.1665 13.4941 4.1665 25C4.1665 36.506 13.4939 45.8334 24.9998 45.8334Z"
              stroke="#428AB5" stroke-width="2.51667" stroke-miterlimit="10"/>
        <path d="M12.9295 23.3463L22.9165 33.3332L37.0831 19.1666" stroke="#428AB5" stroke-width="2.51667"
              stroke-miterlimit="10"/>
    </symbol>
    <symbol fill="none" xmlns="http://www.w3.org/2000/svg" viewBox="0 0 10 10" id="close">
        <path d="M8.60658 1.53553L1.53551 8.6066M1.53551 1.53553L8.60658 8.6066" stroke-width="1.4"
              stroke-linecap="round" stroke-linejoin="round"/>
    </symbol>
    <symbol xmlns="http://www.w3.org/2000/svg" viewBox="0 0 11 20" id="facebook">
        <path d="M6.79453 20H3.69092C3.17251 20 2.75081 19.5648 2.75081 19.0298V11.8057H0.940103C0.421701 11.8057 0 11.3704 0 10.8356V7.74002C0 7.20505 0.421701 6.76987 0.940103 6.76987H2.75081V5.21973C2.75081 3.68271 3.2185 2.37503 4.10315 1.43829C4.9918 0.497284 6.23369 0 7.69456 0L10.0615 0.00396727C10.579 0.00488281 11 0.440063 11 0.974121V3.84827C11 4.38324 10.5784 4.81842 10.0602 4.81842L8.46654 4.81903C7.98052 4.81903 7.85676 4.91959 7.8303 4.95041C7.78668 5.00153 7.73478 5.14603 7.73478 5.54504V6.76971H9.94042C10.1065 6.76971 10.2673 6.81198 10.4056 6.89163C10.7038 7.0636 10.8893 7.38876 10.8893 7.74017L10.8881 10.8357C10.8881 11.3704 10.4664 11.8056 9.94797 11.8056H7.73478V19.0298C7.73478 19.5648 7.31293 20 6.79453 20ZM3.88698 18.8275H6.59846V11.2808C6.59846 10.9236 6.88014 10.6331 7.22613 10.6331H9.7519L9.75294 7.94235H7.22599C6.87999 7.94235 6.59846 7.65182 6.59846 7.29462V5.54504C6.59846 5.08698 6.64356 4.56604 6.97861 4.1745C7.38346 3.70117 8.02148 3.64655 8.46625 3.64655L9.86383 3.64594V1.17615L7.69367 1.17249C5.34593 1.17249 3.88698 2.72339 3.88698 5.21973V7.29462C3.88698 7.65167 3.60545 7.94235 3.25946 7.94235H1.13617V10.6331H3.25946C3.60545 10.6331 3.88698 10.9236 3.88698 11.2808V18.8275ZM10.0593 1.17645H10.0595H10.0593Z"/>
    </symbol>
    <symbol fill="none" xmlns="http://www.w3.org/2000/svg" viewBox="0 0 50 50" id="hand-good">
        <circle cx="24.5" cy="25.5" r="23.4" stroke="#428AB5" stroke-width="2.2"></circle>
        <path d="M35.6357 21.8571H28.545V17.9286C28.5437 16.887 28.1283 15.8885 27.3898 15.152C26.6513 14.4156 25.6501 14.0012 24.6057 14C24.4301 14 24.2595 14.0585 24.121 14.1663C23.9825 14.2741 23.8842 14.4249 23.8415 14.5948L21.927 22.2382C21.8417 22.5784 21.6448 22.8804 21.3675 23.0961C21.0903 23.3119 20.7486 23.4289 20.397 23.4286H19.8786V22.6429C19.8786 22.4345 19.7956 22.2346 19.6478 22.0873C19.5 21.9399 19.2997 21.8571 19.0907 21.8571H12.7879C12.5789 21.8571 12.3785 21.9399 12.2308 22.0873C12.083 22.2346 12 22.4345 12 22.6429V35.2143C12 35.4227 12.083 35.6225 12.2308 35.7699C12.3785 35.9172 12.5789 36 12.7879 36H19.0907C19.2997 36 19.5 35.9172 19.6478 35.7699C19.7956 35.6225 19.8786 35.4227 19.8786 35.2143V34.4286H22.0586C24.1971 35.46 26.5413 35.9971 28.9168 36H32.4842C33.1111 36 33.7123 35.7517 34.1555 35.3096C34.5988 34.8676 34.8478 34.268 34.8478 33.6429C34.8455 33.2368 34.7369 32.8384 34.5327 32.4871C35.0016 32.1959 35.3522 31.7487 35.5225 31.2246C35.6927 30.7005 35.6717 30.1333 35.4631 29.6231C35.8118 29.5333 36.135 29.3641 36.4072 29.1289C36.6794 28.8936 36.8932 28.5987 37.0321 28.2673C37.1709 27.9359 37.2309 27.5769 37.2073 27.2184C37.1837 26.86 37.0773 26.5119 36.8962 26.2014C37.3299 25.9296 37.6631 25.5244 37.8454 25.0471C38.0278 24.5698 38.0494 24.0463 37.907 23.5556C37.7647 23.065 37.466 22.6339 37.0563 22.3275C36.6465 22.021 36.1478 21.856 35.6357 21.8571V21.8571ZM18.3028 34.4286H13.5757V23.4286H18.3028V34.4286ZM34.8478 28.1429H30.9085V29.7143H33.2721C33.4811 29.7143 33.6815 29.7971 33.8292 29.9444C33.977 30.0918 34.06 30.2916 34.06 30.5C34.06 30.7084 33.977 30.9082 33.8292 31.0556C33.6815 31.2029 33.4811 31.2857 33.2721 31.2857H30.1207V32.8571H32.4842C32.6932 32.8571 32.8936 32.9399 33.0413 33.0873C33.1891 33.2346 33.2721 33.4345 33.2721 33.6429C33.2721 33.8512 33.1891 34.0511 33.0413 34.1984C32.8936 34.3458 32.6932 34.4286 32.4842 34.4286H28.9168C26.722 34.425 24.5578 33.914 22.5943 32.9357C22.4846 32.8827 22.364 32.8558 22.2421 32.8571H19.8786V25H20.397C21.0999 25.0001 21.7826 24.7658 22.3366 24.3344C22.8907 23.903 23.2842 23.2993 23.4546 22.6193L25.2021 15.65C25.7078 15.7815 26.1556 16.0765 26.4753 16.4888C26.795 16.901 26.9688 17.4074 26.9693 17.9286V22.6429C26.9693 22.8512 27.0523 23.0511 27.2 23.1984C27.3478 23.3458 27.5482 23.4286 27.7571 23.4286H35.6357C35.8446 23.4286 36.045 23.5114 36.1928 23.6587C36.3405 23.8061 36.4235 24.0059 36.4235 24.2143C36.4235 24.4227 36.3405 24.6225 36.1928 24.7699C36.045 24.9172 35.8446 25 35.6357 25H31.6964V26.5714H34.8478C35.0568 26.5714 35.2572 26.6542 35.4049 26.8016C35.5527 26.9489 35.6357 27.1488 35.6357 27.3571C35.6357 27.5655 35.5527 27.7654 35.4049 27.9127C35.2572 28.0601 35.0568 28.1429 34.8478 28.1429V28.1429Z"
              fill="#428AB5"/>
    </symbol>
    <symbol fill="none" xmlns="http://www.w3.org/2000/svg" viewBox="0 0 41 40" id="home">
        <path d="M36.1772 13.1267V38.1181H4.82275V13.1267" stroke-width="2.51667" stroke-miterlimit="10"/>
        <path d="M40.5 16.4697L20.5 1L0.5 16.4697" stroke-width="2.51667" stroke-miterlimit="10"/>
    </symbol>
    <symbol xmlns="http://www.w3.org/2000/svg" viewBox="0 0 18 18" id="instagram">
        <path d="M13.1276 0H4.87244C2.18573 0 0 2.18573 0 4.87244V13.1277C0 15.8143 2.18573 18 4.87244 18H13.1277C15.8143 18 18 15.8143 18 13.1277V4.87244C18 2.18573 15.8143 0 13.1276 0V0ZM16.9448 13.1277C16.9448 15.2324 15.2324 16.9448 13.1276 16.9448H4.87244C2.76759 16.9448 1.05524 15.2324 1.05524 13.1277V4.87244C1.05524 2.76759 2.76759 1.05524 4.87244 1.05524H13.1277C15.2324 1.05524 16.9448 2.76759 16.9448 4.87244V13.1277Z"/>
        <path d="M9 4C6.24295 4 4 6.24295 4 9C4 11.7571 6.24295 14 9 14C11.7571 14 14 11.7571 14 9C14 6.24295 11.7571 4 9 4ZM9 12.928C6.8342 12.928 5.07202 11.1659 5.07202 9C5.07202 6.8342 6.8342 5.07202 9 5.07202C11.1659 5.07202 12.928 6.8342 12.928 9C12.928 11.1659 11.1659 12.928 9 12.928Z"/>
        <path d="M14 2C13.4485 2 13 2.67291 13 3.49993C13 4.32709 13.4485 5 14 5C14.5514 5 15 4.32709 15 3.49993C15 2.67277 14.5514 2 14 2ZM14 3.91152C13.8487 3.91152 13.7256 3.72683 13.7256 3.49993C13.7256 3.27289 13.8487 3.08833 14 3.08833C14.1513 3.08833 14.2744 3.27289 14.2744 3.49993C14.2744 3.72683 14.1513 3.91152 14 3.91152Z"/>
    </symbol>
    <symbol xmlns="http://www.w3.org/2000/svg" viewBox="0 0 12 15" id="location-smooth">
        <path fill-rule="evenodd" clip-rule="evenodd"
              d="M7.83077 6.48829C7.83077 5.56745 7.08461 4.82129 6.16444 4.82129C5.24359 4.82129 4.49744 5.56745 4.49744 6.48829C4.49744 7.40846 5.24359 8.15462 6.16444 8.15462C7.08461 8.15462 7.83077 7.40846 7.83077 6.48829Z"
              stroke-width="1.2" stroke-linecap="round" stroke-linejoin="round"/>
        <path fill-rule="evenodd" clip-rule="evenodd"
              d="M6.1638 13.4883C5.36481 13.4883 1.16412 10.0872 1.16412 6.53047C1.16412 3.74604 3.40219 1.48828 6.1638 1.48828C8.92541 1.48828 11.1641 3.74604 11.1641 6.53047C11.1641 10.0872 6.96278 13.4883 6.1638 13.4883Z"
              stroke-width="1.2" stroke-linecap="round" stroke-linejoin="round"/>
    </symbol>
    <symbol fill="none" xmlns="http://www.w3.org/2000/svg" viewBox="0 0 33 40" id="marker">
        <path d="M16.5624 24.707C20.9226 24.707 24.4572 21.1724 24.4572 16.8122C24.4572 12.4521 20.9226 8.91748 16.5624 8.91748C12.2023 8.91748 8.66771 12.4521 8.66771 16.8122C8.66771 21.1724 12.2023 24.707 16.5624 24.707Z"
              stroke-width="2.51667" stroke-miterlimit="10"/>
        <path d="M16.5624 37.7234L26.8256 27.7563C29.7368 25.0228 31.5624 21.1346 31.5624 16.8123C31.5624 8.53265 24.842 1.81226 16.5624 1.81226C8.28283 1.81226 1.56244 8.53265 1.56244 16.8123C1.56244 21.1248 3.3881 25.0129 6.29928 27.7563L16.5624 37.7234Z"
              stroke-width="2.51667" stroke-miterlimit="10"/>
    </symbol>
    <symbol xmlns="http://www.w3.org/2000/svg" viewBox="0 0 14 14" id="phone">
        <path d="M11.774 8.758C11.268 8.25849 10.6364 8.25849 10.1336 8.758C9.75012 9.13828 9.36662 9.51855 8.98957 9.90527C8.88645 10.0116 8.79943 10.0342 8.67375 9.96328C8.4256 9.82793 8.16135 9.71836 7.92287 9.57011C6.81105 8.87079 5.8797 7.97167 5.0547 6.95975C4.64542 6.45702 4.28126 5.91883 4.02666 5.31297C3.9751 5.19051 3.98477 5.10994 4.08467 5.01004C4.46817 4.63943 4.842 4.25916 5.21905 3.87888C5.74435 3.35037 5.74435 2.73161 5.21583 2.19987C4.91612 1.89694 4.61641 1.60046 4.3167 1.29753C4.00733 0.988151 3.70118 0.675553 3.38858 0.369399C2.88262 -0.123669 2.25098 -0.123669 1.74824 0.372622C1.36152 0.752897 0.990914 1.14284 0.597749 1.51667C0.233587 1.86149 0.0498953 2.28366 0.0112233 2.77673C-0.0500073 3.57918 0.146575 4.3365 0.423725 5.07449C0.990914 6.60204 1.85459 7.95878 2.90195 9.20273C4.3167 10.885 6.00538 12.2159 7.98088 13.1763C8.87033 13.6081 9.79201 13.9401 10.7943 13.9948C11.4839 14.0335 12.0833 13.8595 12.5635 13.3213C12.8922 12.9539 13.2628 12.6188 13.6109 12.2675C14.1265 11.7454 14.1297 11.1138 13.6173 10.5981C13.005 9.98261 12.3895 9.37031 11.774 8.758Z"/>
    </symbol>
    <symbol xmlns="http://www.w3.org/2000/svg" viewBox="0 0 16 15" id="phone-smooth">
        <path d="M9.73279 1.16699C12.2001 1.44099 14.1495 3.38766 14.4261 5.85499" stroke-width="1.2"
              stroke-linecap="round" stroke-linejoin="round"/>
        <path d="M9.73279 3.5293C10.9135 3.75863 11.8361 4.68196 12.0661 5.86263" stroke-width="1.2"
              stroke-linecap="round" stroke-linejoin="round"/>
        <path fill-rule="evenodd" clip-rule="evenodd"
              d="M7.51845 7.81525C10.1778 10.4739 10.7811 7.39814 12.4743 9.0902C14.1066 10.7222 15.0456 11.0491 12.9767 13.1168C12.7176 13.325 11.0716 15.8298 5.28708 10.0468C-0.498168 4.26299 2.00515 2.61529 2.2134 2.35629C4.28661 0.282889 4.60865 1.22658 6.24103 2.85854C7.93352 4.55132 4.85913 5.1566 7.51845 7.81525Z"
              stroke-width="1.5" stroke-linecap="round" stroke-linejoin="round"/>
    </symbol>
    <symbol fill="none" xmlns="http://www.w3.org/2000/svg" viewBox="0 0 39 38" id="repair">
        <path d="M2.88548 7.38517L7.62506 12.1248C8.29173 12.7914 9.18756 13.156 10.1251 13.156C12.073 13.156 13.6563 11.5727 13.6563 9.62476C13.6563 8.68726 13.2813 7.79142 12.6251 7.12476L7.88548 2.38517C9.13548 1.82267 10.5313 1.49976 12.0001 1.49976C17.5209 1.49976 22.0001 5.97892 22.0001 11.4998C22.0001 12.5102 21.8438 13.4789 21.573 14.406L35.6251 28.4581C36.5105 29.3435 37.0105 30.5414 37.0105 31.7914C37.0105 34.3956 34.8959 36.5102 32.2917 36.5102C31.0417 36.5102 29.8438 36.0102 28.9584 35.1248L14.9063 21.0727C13.9896 21.3539 13.0105 21.4998 12.0001 21.4998C6.47923 21.4998 2.00006 17.0206 2.00006 11.4998C2.00006 10.031 2.32298 8.64559 2.88548 7.38517Z"
              stroke-width="2.51667" stroke-miterlimit="10"/>
    </symbol>
    <symbol fill="none" xmlns="http://www.w3.org/2000/svg" viewBox="0 0 41 40" id="search">
        <path d="M16.3333 28.3336C23.2369 28.3336 28.8333 22.7372 28.8333 15.8336C28.8333 8.93006 23.2369 3.33362 16.3333 3.33362C9.42978 3.33362 3.83334 8.93006 3.83334 15.8336C3.83334 22.7372 9.42978 28.3336 16.3333 28.3336Z"
              stroke-width="2.51667" stroke-miterlimit="10"/>
        <path d="M37.6666 37.167L25.1771 24.6774" stroke-width="2.51667" stroke-miterlimit="10"/>
    </symbol>
    <symbol fill="none" xmlns="http://www.w3.org/2000/svg" viewBox="0 0 46 45" id="user-target">
        <path d="M23.0003 43.3331C34.5062 43.3331 43.8336 34.0057 43.8336 22.4998C43.8336 10.9938 34.5062 1.66644 23.0003 1.66644C11.4943 1.66644 2.16692 10.9938 2.16692 22.4998C2.16692 34.0057 11.4943 43.3331 23.0003 43.3331Z"
              stroke="#428AB5" stroke-width="2.50185" stroke-miterlimit="10"/>
        <path d="M23.0004 43.3332V38.1249" stroke="#428AB5" stroke-width="2.50185" stroke-miterlimit="10"/>
        <path d="M23.0004 6.87517V1.66684" stroke="#428AB5" stroke-width="2.50185" stroke-miterlimit="10"/>
        <path d="M2.167 22.5002H7.37533" stroke="#428AB5" stroke-width="2.50185" stroke-miterlimit="10"/>
        <path d="M38.6254 22.5002H43.8337" stroke="#428AB5" stroke-width="2.50185" stroke-miterlimit="10"/>
        <path d="M23.0003 21.4585C25.3015 21.4585 27.167 19.593 27.167 17.2918C27.167 14.9906 25.3015 13.1251 23.0003 13.1251C20.6991 13.1251 18.8336 14.9906 18.8336 17.2918C18.8336 19.593 20.6991 21.4585 23.0003 21.4585Z"
              stroke="#428AB5" stroke-width="2.50185" stroke-miterlimit="10"/>
        <path d="M15.7085 32.9174V29.2716C15.7085 28.3046 16.0926 27.3773 16.7763 26.6936C17.46 26.0098 18.3874 25.6257 19.3543 25.6257H26.646C27.6129 25.6257 28.5402 26.0098 29.224 26.6936C29.9077 27.3773 30.2918 28.3046 30.2918 29.2716V32.9174"
              stroke="#428AB5" stroke-width="2.50185" stroke-miterlimit="10"/>
    </symbol>
    <symbol fill="none" xmlns="http://www.w3.org/2000/svg" viewBox="0 0 50 44" id="user-folder">
        <path d="M39.5827 41.7913H4.16602C3.33721 41.7913 2.54236 41.4621 1.95631 40.876C1.37026 40.29 1.04102 39.4951 1.04102 38.6663V11.583C1.04102 10.7542 1.37026 9.95935 1.95631 9.3733C2.54236 8.78725 3.33721 8.45801 4.16602 8.45801H11.64C12.1921 8.45895 12.7214 8.67907 13.1113 9.06999L17.0957 13.0544C17.4857 13.4453 18.0149 13.6654 18.5671 13.6663H39.5827C40.4115 13.6663 41.2063 13.9956 41.7924 14.5816C42.3784 15.1677 42.7077 15.9625 42.7077 16.7913V38.6663C42.7077 39.4951 42.3784 40.29 41.7924 40.876C41.2063 41.4621 40.4115 41.7913 39.5827 41.7913Z"
              stroke="#428AB5" stroke-width="2.50185" stroke-miterlimit="10"/>
        <path d="M7.29102 8.45776V5.33276C7.29102 4.50396 7.62026 3.70911 8.20631 3.12306C8.79236 2.537 9.58721 2.20776 10.416 2.20776H17.89C18.4421 2.20871 18.9714 2.42882 19.3613 2.81974L23.3457 6.80412C23.7357 7.19504 24.2649 7.41515 24.8171 7.4161H45.8327C46.6615 7.4161 47.4563 7.74534 48.0424 8.33139C48.6284 8.91744 48.9577 9.7123 48.9577 10.5411V32.4161C48.9577 33.2449 48.6284 34.0398 48.0424 34.6258C47.4563 35.2119 46.6615 35.5411 45.8327 35.5411H42.7077"
              stroke="#428AB5" stroke-width="2.50185" stroke-miterlimit="10"/>
        <path d="M25 18.874H38.5417H25Z" fill="#428AB5"/>
        <path d="M25 18.874H38.5417" stroke="#428AB5" stroke-width="2.50185" stroke-miterlimit="10"/>
        <path d="M25 24.0828H38.5417H25Z" fill="#428AB5"/>
        <path d="M25 24.0828H38.5417" stroke="#428AB5" stroke-width="2.50185" stroke-miterlimit="10"/>
        <path d="M13.5417 26.1665C15.8429 26.1665 17.7083 24.301 17.7083 21.9998C17.7083 19.6986 15.8429 17.8331 13.5417 17.8331C11.2405 17.8331 9.375 19.6986 9.375 21.9998C9.375 24.301 11.2405 26.1665 13.5417 26.1665Z"
              stroke="#428AB5" stroke-width="2.50185" stroke-miterlimit="10"/>
        <path d="M6.25 37.6247V33.9788C6.25 33.0119 6.63411 32.0846 7.31784 31.4008C8.00157 30.7171 8.9289 30.333 9.89583 30.333H17.1875C18.1544 30.333 19.0818 30.7171 19.7655 31.4008C20.4492 32.0846 20.8333 33.0119 20.8333 33.9788V37.6247"
              stroke="#428AB5" stroke-width="2.50185" stroke-miterlimit="10"/>
    </symbol>
    <symbol xmlns="http://www.w3.org/2000/svg" viewBox="0 0 20 18" id="telegram">
        <path d="M0.350701 8.37408L4.9488 10.0886L6.74126 15.8557C6.8192 16.2454 7.2868 16.3233 7.59854 16.0895L10.1703 13.9853C10.4041 13.7515 10.7938 13.7515 11.1055 13.9853L15.7036 17.3364C16.0154 17.5702 16.483 17.4144 16.5609 17.0247L19.99 0.658655C20.0679 0.268988 19.6782 -0.120677 19.2886 0.0351905L0.350701 7.36095C-0.1169 7.51681 -0.1169 8.21821 0.350701 8.37408ZM6.50747 9.23135L15.5477 3.69807C15.7036 3.62013 15.8595 3.85394 15.7036 3.93187L8.29993 10.868C8.06613 11.1018 7.83233 11.4135 7.83233 11.8032L7.59854 13.6736C7.59854 13.9074 7.20886 13.9853 7.13093 13.6736L6.19572 10.2445C5.96192 9.85482 6.1178 9.38721 6.50747 9.23135Z"/>
    </symbol>
    <symbol xmlns="http://www.w3.org/2000/svg" viewBox="0 0 22 18" id="twitter">
        <path d="M22 2.40391C20.6161 2.46767 20.6463 2.46247 20.4899 2.47556L21.3095 0.135726C21.3095 0.135726 18.7512 1.07652 18.1026 1.24482C16.3993 -0.285594 13.8675 -0.353214 12.0574 0.758898C10.5752 1.66983 9.77959 3.23413 10.045 5.06254C7.16017 4.66236 4.72958 3.29538 2.81059 0.990951L2.20366 0.26224L1.75014 1.09481C1.17694 2.14686 0.986603 3.34974 1.21404 4.48182C1.30736 4.94626 1.46597 5.38923 1.68568 5.804L1.16502 5.60232L1.10326 6.47198C1.04065 7.35539 1.33488 8.38663 1.89046 9.23027C2.04689 9.46786 2.24831 9.72878 2.5036 9.98617L2.23454 9.94489L2.56285 10.9414C2.99438 12.2507 3.89069 13.2636 5.05386 13.8267C3.8922 14.3195 2.95377 14.6339 1.41125 15.1412L0 15.6049L1.3035 16.3174C1.80049 16.589 3.55667 17.4963 5.29187 17.7684C9.14899 18.3731 13.4917 17.8807 16.4152 15.2486C18.8777 13.0316 19.6857 9.87794 19.5179 6.59614C19.4925 6.09931 19.6287 5.62514 19.9012 5.2612C20.4473 4.53249 21.9966 2.40878 22 2.40391ZM18.8705 4.48937C18.4178 5.09358 18.1911 5.86525 18.2317 6.66191C18.401 9.97224 17.5 12.5394 15.5535 14.2918C13.2797 16.339 9.61208 17.1426 5.49144 16.4964C4.74519 16.3795 3.97394 16.1175 3.33562 15.856C4.62888 15.4111 5.62756 15.0147 7.2404 14.2516L9.4919 13.1863L7.00609 13.0272C5.81538 12.951 4.82391 12.3742 4.21446 11.4375C4.53807 11.4188 4.8501 11.3664 5.16078 11.2798L7.53162 10.6197L5.14098 10.0345C3.97931 9.75009 3.31715 9.05527 2.96619 8.52237C2.73573 8.17219 2.58517 7.81346 2.49487 7.48274C2.73456 7.54701 3.01402 7.59281 3.46469 7.63744L5.67741 7.85624L3.92426 6.48909C2.66104 5.50416 2.15482 4.02442 2.52592 2.6019C6.46831 6.6896 11.0972 6.38238 11.5631 6.49043C11.4606 5.4946 11.4579 5.49225 11.431 5.39745C10.8343 3.28883 12.142 2.21817 12.7318 1.85574C13.9638 1.09884 15.9194 0.984743 17.2739 2.23176C17.5665 2.50089 17.9621 2.60677 18.3324 2.51482C18.6647 2.43227 18.9375 2.34485 19.2045 2.24971L18.6486 3.83667L19.3583 3.83717C19.2243 4.01671 19.0637 4.23165 18.8705 4.48937Z"/>
    </symbol>
    <symbol xmlns="http://www.w3.org/2000/svg" viewBox="0 0 21 23" id="viber">
        <path d="M16.2539 0.545914C12.4424 -0.181971 8.48429 -0.181971 4.67277 0.545914C2.98691 0.909856 0.861257 2.94793 0.494764 4.54928C-0.164922 7.67919 -0.164922 10.8819 0.494764 14.0118C0.934555 15.6131 3.06021 17.6512 4.67277 18.0152C4.74607 18.0152 4.81937 18.0879 4.81937 18.1607V22.7464C4.81937 22.9648 5.11257 23.1103 5.25916 22.892L7.45812 20.6355C7.45812 20.6355 9.21728 18.8158 9.51047 18.5247C9.51047 18.5247 9.58377 18.4519 9.65707 18.4519C11.856 18.5247 14.1283 18.3063 16.3272 17.9424C18.0131 17.5784 20.1387 15.5403 20.5052 13.939C21.1649 10.8091 21.1649 7.6064 20.5052 4.47649C20.0654 2.94793 17.9398 0.909856 16.2539 0.545914ZM16.3272 14.2302C15.9607 14.958 15.5209 15.5403 14.788 15.9043C14.5681 15.9771 14.3482 16.0499 14.1283 16.1227C13.8351 16.0499 13.6152 15.9771 13.3953 15.9043C11.0497 14.958 8.85079 13.6478 7.09162 11.7553C6.13874 10.6635 5.33246 9.42611 4.67277 8.11592C4.37958 7.46082 4.08639 6.87851 3.86649 6.22342C3.6466 5.64111 4.01309 5.0588 4.37958 4.62207C4.74607 4.18534 5.18586 3.89418 5.69895 3.67582C6.06544 3.45745 6.43194 3.60303 6.72513 3.89418C7.31152 4.62207 7.8979 5.34995 8.3377 6.15063C8.63089 6.66015 8.55759 7.24245 8.0445 7.6064C7.8979 7.67919 7.82461 7.75198 7.67801 7.89755C7.60471 7.97034 7.45811 8.04313 7.38481 8.1887C7.23822 8.40707 7.23822 8.62544 7.31152 8.8438C7.8979 10.5179 8.99738 11.8281 10.6832 12.556C10.9764 12.7016 11.1963 12.7744 11.5628 12.7744C12.0759 12.7016 12.2958 12.1193 12.6623 11.8281C13.0288 11.537 13.4686 11.537 13.9084 11.7553C14.2749 11.9737 14.6414 12.2649 15.0811 12.556C15.4476 12.8472 15.8141 13.0655 16.1806 13.3567C16.4005 13.5023 16.4738 13.8662 16.3272 14.2302ZM13.2487 8.77101C13.1021 8.77101 13.1754 8.77101 13.2487 8.77101C12.9555 8.77101 12.8822 8.62544 12.8089 8.40707C12.8089 8.26149 12.8089 8.04313 12.7356 7.89755C12.6623 7.6064 12.5157 7.31524 12.2225 7.09688C12.0759 7.02409 11.9293 6.9513 11.7827 6.87851C11.5628 6.80572 11.4162 6.80572 11.1963 6.80572C10.9764 6.73294 10.9031 6.58736 10.9031 6.36899C10.9031 6.22342 11.123 6.07784 11.2696 6.07784C12.4424 6.15063 13.322 6.80572 13.4686 8.1887C13.4686 8.26149 13.4686 8.40707 13.4686 8.47986C13.4686 8.62544 13.3953 8.77101 13.2487 8.77101ZM12.5157 5.56832C12.1492 5.42274 11.7827 5.27717 11.3429 5.20438C11.1963 5.20438 10.9764 5.13159 10.8298 5.13159C10.6099 5.13159 10.4634 4.98601 10.5366 4.76765C10.5366 4.54928 10.6832 4.4037 10.9031 4.47649C11.6361 4.54928 12.2958 4.69486 12.9555 4.98601C14.2749 5.64111 15.0079 6.73293 15.2277 8.1887C15.2277 8.26149 15.2277 8.33428 15.2277 8.40707C15.2277 8.55265 15.2277 8.69822 15.2277 8.91659C15.2277 8.98938 15.2277 9.06217 15.2277 9.13496C15.1545 9.42611 14.6414 9.4989 14.5681 9.13496C14.5681 9.06217 14.4948 8.91659 14.4948 8.8438C14.4948 8.18871 14.3482 7.53361 14.055 6.9513C13.6152 6.2962 13.1021 5.85947 12.5157 5.56832ZM16.4738 9.93563C16.2539 9.93563 16.1073 9.71727 16.1073 9.4989C16.1073 9.06217 16.034 8.62543 15.9607 8.1887C15.6675 5.85947 13.7618 3.96697 11.4895 3.60303C11.123 3.53024 10.7565 3.53024 10.4634 3.45745C10.2435 3.45745 9.95026 3.45745 9.87696 3.1663C9.80366 2.94793 10.0236 2.72957 10.2435 2.72957C10.3168 2.72957 10.3901 2.72957 10.3901 2.72957C13.3953 2.80236 10.5367 2.72957 10.3901 2.72957C13.4686 2.80236 16.034 4.84044 16.5471 7.89755C16.6204 8.40707 16.6937 8.91659 16.6937 9.4989C16.8403 9.71727 16.6937 9.93563 16.4738 9.93563Z"/>
    </symbol>
    <symbol xmlns="http://www.w3.org/2000/svg" viewBox="0 0 14 16" id="user">
        <path d="M7 7.63636C9.20938 7.63636 11 5.92713 11 3.81818C11 1.70923 9.20938 0 7 0C4.79063 0 3 1.70923 3 3.81818C3 5.92713 4.79063 7.63636 7 7.63636ZM9.8 8.59091H9.27812C8.58437 8.89517 7.8125 9.06818 7 9.06818C6.1875 9.06818 5.41875 8.89517 4.72188 8.59091H4.2C1.88125 8.59091 0 10.3866 0 12.6V13.8409C0 14.6314 0.671875 15.2727 1.5 15.2727H12.5C13.3281 15.2727 14 14.6314 14 13.8409V12.6C14 10.3866 12.1187 8.59091 9.8 8.59091Z"/>
    </symbol>
    <symbol xmlns="http://www.w3.org/2000/svg" viewBox="0 0 22 18" id="youtube">
        <path d="M14.5108 8.24629L9.39165 5.60983C9.09731 5.45824 8.74939 5.46389 8.46088 5.6248C8.17219 5.78588 8 6.07043 8 6.38626V11.6139C8 11.9282 8.17113 12.2123 8.45787 12.3735C8.60761 12.4577 8.77361 12.5 8.93997 12.5C9.09236 12.5 9.2451 12.4646 9.38564 12.3933L14.505 9.8023C14.8089 9.64838 14.9986 9.35102 15 9.02604C15.0012 8.70106 14.8138 8.40237 14.5108 8.24629ZM9.35789 10.9563V7.0492L13.1839 9.01972L9.35789 10.9563Z"/>
        <path d="M21.838 4.51232L21.837 4.50204C21.8184 4.32139 21.6329 2.71447 20.8672 1.89715C19.9822 0.935805 18.9788 0.81902 18.4962 0.763024C18.4563 0.758401 18.4197 0.75412 18.387 0.749668L18.3485 0.745558C15.4401 0.529796 11.0478 0.500342 11.0038 0.500171L10.9999 0.5L10.9961 0.500171C10.9521 0.500342 6.55973 0.529796 3.62512 0.745558L3.58635 0.749668C3.55513 0.753949 3.52073 0.757887 3.4833 0.762339C3.00628 0.818506 2.01364 0.935463 1.12607 1.93156C0.396787 2.74016 0.185973 4.31265 0.164321 4.48937L0.161803 4.51232C0.155257 4.58749 0 6.37712 0 8.17377V9.85329C0 11.6499 0.155257 13.4396 0.161803 13.5149L0.162978 13.5262C0.181609 13.704 0.36691 15.2814 1.1291 16.0991C1.96127 17.0282 3.0135 17.1512 3.57947 17.2173C3.66893 17.2277 3.74597 17.2366 3.79851 17.2461L3.84937 17.2532C5.52866 17.4163 10.7938 17.4966 11.017 17.4998L11.0238 17.5L11.0305 17.4998C11.0744 17.4997 15.4666 17.4702 18.375 17.2544L18.4135 17.2503C18.4502 17.2454 18.4915 17.2409 18.5368 17.2361C19.0112 17.1847 19.9984 17.0781 20.8738 16.0955C21.603 15.2867 21.814 13.7142 21.8355 13.5377L21.838 13.5147C21.8446 13.4394 22 11.6499 22 9.85329V8.17377C21.9998 6.37712 21.8446 4.58766 21.838 4.51232ZM20.7106 9.85329C20.7106 11.5162 20.5683 13.2288 20.5549 13.386C20.5001 13.819 20.2777 14.8139 19.9224 15.208C19.3746 15.8229 18.8118 15.8838 18.4009 15.9282C18.3512 15.9335 18.3052 15.9386 18.2636 15.9439C15.4505 16.1515 11.224 16.1833 11.0293 16.1845C10.8109 16.1813 5.62282 16.1003 3.99472 15.946C3.9113 15.9321 3.82117 15.9215 3.72617 15.9106C3.24428 15.8542 2.58465 15.7772 2.07742 15.208L2.06551 15.1949C1.71639 14.8239 1.50037 13.8935 1.44548 13.3911C1.43525 13.2723 1.28922 11.5395 1.28922 9.85329V8.17377C1.28922 6.51274 1.43122 4.80206 1.44498 4.64161C1.51027 4.13148 1.73686 3.19686 2.07742 2.8191C2.64205 2.18551 3.2374 2.1153 3.63117 2.0689C3.66876 2.06445 3.70384 2.06034 3.73624 2.05606C6.59028 1.84749 10.8472 1.81649 10.9999 1.81529C11.1527 1.81632 15.408 1.84749 18.2367 2.05606C18.2715 2.06051 18.3094 2.06496 18.3502 2.06976C18.7552 2.11685 19.3673 2.18808 19.9291 2.79941L19.9343 2.80506C20.2834 3.17614 20.4995 4.12275 20.5543 4.63527C20.5641 4.74743 20.7106 6.48397 20.7106 8.17377V9.85329Z"/>
    </symbol>
    <symbol xmlns="http://www.w3.org/2000/svg" viewBox="0 0 21 21" id="whatsapp">
        <path d="M17.9268 3.0625C15.9512 1.09375 13.3171 0 10.5366 0C4.7561 0 0.0731696 4.66667 0.0731696 10.4271C0.0731696 12.25 0.585366 14.0729 1.46341 15.6042L0 21L5.56098 19.5417C7.09756 20.3438 8.78049 20.7812 10.5366 20.7812C16.3171 20.7812 21 16.1146 21 10.3542C20.9268 7.65625 19.9024 5.03125 17.9268 3.0625ZM15.5854 14.1458C15.3659 14.7292 14.3415 15.3125 13.8293 15.3854C13.3902 15.4583 12.8049 15.4583 12.2195 15.3125C11.8537 15.1667 11.3415 15.0208 10.7561 14.7292C8.12195 13.6354 6.43903 11.0104 6.29268 10.7917C6.14634 10.6458 5.19512 9.40625 5.19512 8.09375C5.19512 6.78125 5.85366 6.19792 6.07317 5.90625C6.29268 5.61458 6.58536 5.61458 6.80488 5.61458C6.95122 5.61458 7.17073 5.61458 7.31707 5.61458C7.46341 5.61458 7.68293 5.54167 7.90244 6.05208C8.12195 6.5625 8.63414 7.875 8.70731 7.94792C8.78049 8.09375 8.78049 8.23958 8.70731 8.38542C8.63414 8.53125 8.56097 8.67708 8.41463 8.82292C8.26829 8.96875 8.12195 9.1875 8.04878 9.26042C7.90244 9.40625 7.7561 9.55208 7.90244 9.77083C8.04878 10.0625 8.56097 10.8646 9.36585 11.5937C10.3902 12.4687 11.1951 12.7604 11.4878 12.9063C11.7805 13.0521 11.9268 12.9792 12.0732 12.8333C12.2195 12.6875 12.7317 12.1042 12.878 11.8125C13.0244 11.5208 13.2439 11.5938 13.4634 11.6667C13.6829 11.7396 15 12.3958 15.2195 12.5417C15.5122 12.6875 15.6585 12.7604 15.7317 12.8333C15.8049 13.0521 15.8049 13.5625 15.5854 14.1458Z"/>
    </symbol>
</svg>